# xmcd
#
# Track frame offsets:
#	150
#	16342
#	36316
#	51347
#	63322
#	79004
#	94452
#	108988
#	128001
#	139469
#	150963
#	162499
#	186257
#	196495
#
# Disc length: 2836 seconds
#
# Revision: 1
# Processed by: cddbd v1.5.2PL0 Copyright (c) Steve Scherf et al.
# Submitted via: audiograbber 1.83.01
#
DISCID=c10b120e
DTITLE=Blue Shades - Chasing Dreams
DYEAR=2006
DGENRE=Bluegrasss
TTITLE0=The Whole World Round
TTITLE1=Chasing Dreams
TTITLE2=Gardens And Memories
TTITLE3=Catawba
TTITLE4=Little White Church
TTITLE5=Anita You're Dreaming
TTITLE6=The Room In My Mind
TTITLE7=Ghost Riders In the Sky
TTITLE8=Blue Bonnet Lane
TTITLE9=And Then I'll Miss You
TTITLE10=Gone Home
TTITLE11=Maggie May
TTITLE12=Stoney Creek
TTITLE13=Goodbye Marie
EXTD=
EXTT0=
EXTT1=
EXTT2=
EXTT3=
EXTT4=
EXTT5=
EXTT6=
EXTT7=
EXTT8=
EXTT9=
EXTT10=
EXTT11=
EXTT12=
EXTT13=
PLAYORDER=
